{"title":"L Uomo la donna e la bestia  aka Man, Woman and Beast (1977)","uid":9941172,"size":1649557471,"categoryP":"video","categoryS":"movies","magnet":"?xt=urn:btih:1c9c477892c3ccbb8049389f76bdf72b62ecaba4&amp;dn=L+Uomo+la+donna+e+la+bestia++aka+Man%2C+Woman+and+Beast+%281977%29&amp;tr=udp%3A%2F%2Ftracker.openbittorrent.com%3A80&amp;tr=udp%3A%2F%2Fopen.demonii.com%3A1337&amp;tr=udp%3A%2F%2Ftracker.coppersurfer.tk%3A6969&amp;tr=udp%3A%2F%2Fexodus.desync.com%3A6969","seeders":1,"leechers":1,"uploader":"cavallone","files":2,"time":1397246612,"description":"Plot: A small town in Italy is about to celebrate their patron saint. The city is full of people with different problems. A Communist in existentialist crisis that also must take care of his mentally ill wife. A woman who is tired of her husband's inability to show emotions and therefore more and more often slips into the world of dreams. A perverse butcher engaged in sex with the meat he sells when he's not peeping on young girls. A girl who became pregnant after having sex with her father. In this town a mysterious stranger show up and who turns on several of the inhabitants lives.\n\n\nRip Specs:\n\n\nFormat                                   : Matroska\nFormat version                           : Version 2\nFile size                                : 1.54 GiB\nDuration                                 : 1h 39mn\nOverall bit rate                         : 2 214 Kbps\nEncoded date                             : UTC 2013-01-21 19:48:39\nWriting application                      : mkvmerge v5.6.0 ('Kenya Kane') built on May 28 2012 06:47:39\nWriting library                          : libebml v1.2.2 + libmatroska v1.3.0\n\nVideo\nID                                       : 1\nFormat                                   : AVC\nFormat/Info                              : Advanced Video Codec\nFormat profile                           : &lt;a class=&quot;__cf_email__&quot; href=&quot;/cdn-cgi/l/email-protection&quot; data-cfemail=&quot;450d2c222d0509716b74&quot;&gt;[email&amp;#160;protected]&lt;/a&gt;&lt;script cf-hash='f9e31' type=&quot;text/javascript&quot;&gt;\n/* &lt;![CDATA[ */!function(){try{var t=&quot;currentScript&quot;in document?document.currentScript:function(){for(var t=document.getElementsByTagName(&quot;script&quot;),e=t.length;e--;)if(t[e].getAttribute(&quot;cf-hash&quot;))return t[e]}();if(t&amp;&amp;t.previousSibling){var e,r,n,i,c=t.previousSibling,a=c.getAttribute(&quot;data-cfemail&quot;);if(a){for(e=&quot;&quot;,r=parseInt(a.substr(0,2),16),n=2;a.length-n;n+=2)i=parseInt(a.substr(n,2),16)^r,e+=String.fromCharCode(i);e=document.createTextNode(e),c.parentNode.replaceChild(e,c)}}}catch(u){}}();/* ]]&gt; */&lt;/script&gt;\nFormat settings, CABAC                   : Yes\nFormat settings, ReFrames                : 16 frames\nCodec ID                                 : V_MPEG4/ISO/AVC\nDuration                                 : 1h 39mn\nBit rate                                 : 1 978 Kbps\nWidth                                    : 700 pixels\nHeight                                   : 408 pixels\nDisplay aspect ratio                     : 1.85:1\nOriginal display aspect ratio            : 1.85:1\nFrame rate mode                          : Constant\nFrame rate                               : 25.000 fps\nColor space                              : YUV\nChroma subsampling                       : 4:2:0\nBit depth                                : 8 bits\nScan type                                : Progressive\nBits/(Pixel*Frame)                       : 0.277\nStream size                              : 1.37 GiB (89%)\nWriting library                          : x264 core 129 r2230 1cffe9f\nEncoding settings                        : cabac=1 / ref=16 / deblock=1:-3:-3 / analyse=0x3:0x133 / me=umh / subme=11 / psy=1 / psy_rd=1.10:0.00 / mixed_ref=1 / me_range=24 / chroma_me=1 / trellis=2 / 8x8dct=1 / cqm=0 / deadzone=21,11 / fast_pskip=0 / chroma_qp_offset=-2 / threads=3 / lookahead_threads=1 / sliced_threads=0 / nr=0 / decimate=0 / interlaced=0 / bluray_compat=0 / constrained_intra=0 / bframes=8 / b_pyramid=2 / b_adapt=2 / b_bias=0 / direct=3 / weightb=1 / open_gop=0 / weightp=2 / keyint=250 / keyint_min=25 / scenecut=40 / intra_refresh=0 / rc=crf / mbtree=0 / crf=17.6 / qcomp=0.80 / qpmin=0 / qpmax=69 / qpstep=4 / ip_ratio=1.40 / pb_ratio=1.30 / aq=1:1.00\nLanguage                                 : English\nDefault                                  : Yes\nForced                                   : No\n\nAudio\nID                                       : 2\nFormat                                   : AC-3\nFormat/Info                              : Audio Coding 3\nMode extension                           : CM (complete main)\nFormat settings, Endianness              : Big\nCodec ID                                 : A_AC3\nDuration                                 : 1h 39mn\nBit rate mode                            : Constant\nBit rate                                 : 192 Kbps\nChannel(s)                               : 2 channels\nChannel positions                        : Front: L R\nSampling rate                            : 48.0 KHz\nBit depth                                : 16 bits\nCompression mode                         : Lossy\nStream size                              : 136 MiB (9%)\nDefault                                  : Yes\nForced                                   : No\n\nText\nID                                       : 3\nFormat                                   : UTF-8\nCodec ID                                 : S_TEXT/UTF8\nCodec ID/Info                            : UTF-8 Plain Text\nDefault                                  : Yes\nForced                                   : No\n\n\nSubs: English and Brazilian Portuguese (srt).","torrent":{"xt":"urn:btih:1c9c477892c3ccbb8049389f76bdf72b62ecaba4","amp;dn":"L+Uomo+la+donna+e+la+bestia++aka+Man%2C+Woman+and+Beast+%281977%29","amp;tr":["udp%3A%2F%2Ftracker.openbittorrent.com%3A80","udp%3A%2F%2Fopen.demonii.com%3A1337","udp%3A%2F%2Ftracker.coppersurfer.tk%3A6969","udp%3A%2F%2Fexodus.desync.com%3A6969"],"infoHash":"1c9c477892c3ccbb8049389f76bdf72b62ecaba4","infoHashBuffer":{"type":"Buffer","data":[28,156,71,120,146,195,204,187,128,73,56,159,118,189,247,43,98,236,171,164]},"announce":[],"urlList":[]}}